<svg width="9" height="18" viewBox="0 0 9 18" fill="none" xmlns="http://www.w3.org/2000/svg">
<path d="M6.87913 0C8.19 0 8.84543 0.8208 8.84543 1.7613C8.84543 2.9358 7.70674 4.0221 6.22467 4.0221C4.98326 4.0221 4.25935 3.3471 4.29359 2.2311C4.29359 1.2924 5.15543 0 6.87913 0ZM2.84576 18C1.81076 18 1.05261 17.4132 1.77652 14.8284L2.96413 10.2456C3.17054 9.513 3.20478 9.2187 2.96413 9.2187C2.65402 9.2187 1.31185 9.7245 0.516522 10.224L0 9.432C2.51609 7.4646 5.41076 6.3117 6.65315 6.3117C7.68717 6.3117 7.85935 7.4574 7.34283 9.2187L5.98207 14.0355C5.74141 14.886 5.84413 15.1794 6.08576 15.1794C6.39587 15.1794 7.41326 14.8266 8.41304 14.0931L9 14.8257C6.55239 17.118 3.8788 18 2.84576 18Z" fill="white"/>
</svg>
