<svg width="26" height="19" viewBox="0 0 26 19" fill="none" xmlns="http://www.w3.org/2000/svg">
<path d="M4.72727 0H26V14.25H4.72727V0ZM15.3636 3.5625C16.3039 3.5625 17.2057 3.93783 17.8707 4.60593C18.5356 5.27403 18.9091 6.18017 18.9091 7.125C18.9091 8.06983 18.5356 8.97597 17.8707 9.64407C17.2057 10.3122 16.3039 10.6875 15.3636 10.6875C14.4233 10.6875 13.5215 10.3122 12.8566 9.64407C12.1917 8.97597 11.8182 8.06983 11.8182 7.125C11.8182 6.18017 12.1917 5.27403 12.8566 4.60593C13.5215 3.93783 14.4233 3.5625 15.3636 3.5625ZM9.45455 2.375C9.45455 3.00489 9.20552 3.60898 8.76225 4.05438C8.31898 4.49978 7.71778 4.75 7.09091 4.75V9.5C7.71778 9.5 8.31898 9.75022 8.76225 10.1956C9.20552 10.641 9.45455 11.2451 9.45455 11.875H21.2727C21.2727 11.2451 21.5218 10.641 21.965 10.1956C22.4083 9.75022 23.0095 9.5 23.6364 9.5V4.75C23.0095 4.75 22.4083 4.49978 21.965 4.05438C21.5218 3.60898 21.2727 3.00489 21.2727 2.375H9.45455ZM0 4.75H2.36364V16.625H21.2727V19H0V4.75Z" fill="#8572F4"/>
</svg>
