<svg width="16" height="19" viewBox="0 0 16 19" fill="none" xmlns="http://www.w3.org/2000/svg">
<path d="M8.00314 11.5519H8.04677C8.98171 11.5768 9.72967 12.3373 9.72967 13.2722C9.72967 14.07 9.1874 14.7369 8.45191 14.9364V15.6345C8.45191 15.8838 8.25246 16.0833 8.00314 16.0833C7.75382 16.0833 7.55437 15.8838 7.55437 15.6345V14.9364C7.18813 14.8379 6.86453 14.6216 6.63357 14.3208C6.40261 14.02 6.27716 13.6514 6.27661 13.2722C6.27661 13.0229 6.47607 12.8234 6.72538 12.8234C6.9747 12.8234 7.17416 13.0229 7.17416 13.2722C7.17416 13.7334 7.5419 14.1012 7.99691 14.1012C8.45191 14.1012 8.82589 13.7272 8.82589 13.2722C8.82589 12.8172 8.45191 12.4432 7.99691 12.4432H7.95328C7.50489 12.4311 7.07891 12.2446 6.76583 11.9233C6.45276 11.6021 6.27726 11.1715 6.27661 10.7229C6.27661 9.92511 6.81888 9.25818 7.55437 9.05873V8.36064C7.55437 8.11132 7.75382 7.91187 8.00314 7.91187C8.25246 7.91187 8.45191 8.11132 8.45191 8.36064V9.05873C9.1874 9.25818 9.72967 9.92511 9.72967 10.7229C9.72967 10.9722 9.53021 11.1717 9.28089 11.1717C9.03158 11.1717 8.83212 10.9722 8.83212 10.7229C8.83212 10.2679 8.45814 9.89394 8.00314 9.89394C7.54813 9.89394 7.17416 10.2679 7.17416 10.7229C7.17416 11.1779 7.54813 11.5519 8.00314 11.5519Z" fill="white"/>
<path d="M4.69466 2.67312L6.43116 4.70506L6.24355 4.91449C2.66957 5.71605 0 8.90794 0 12.7238C0 16.0783 2.72255 18.8009 6.07713 18.8009H9.92286C13.2774 18.8009 16 16.079 16 12.7244C16.0062 8.90794 13.3366 5.71605 9.76267 4.91449C9.7772 4.78278 9.7534 4.64967 9.69411 4.53116L11.1713 2.84016L11.2667 2.69306C11.378 2.45018 11.4065 2.17745 11.3478 1.9168C11.289 1.65615 11.1462 1.42202 10.9414 1.25043C10.7366 1.07883 10.4811 0.979273 10.2142 0.967057C9.94728 0.954842 9.68374 1.03065 9.46412 1.18282L8.93868 0.559524C8.82081 0.427623 8.67647 0.322038 8.51507 0.249651C8.35367 0.177265 8.17883 0.1397 8.00194 0.139406C7.82505 0.139112 7.65008 0.176095 7.48844 0.247945C7.3268 0.319795 7.18211 0.424899 7.06381 0.556407L6.51344 1.17098C6.29438 1.01564 6.03024 0.936812 5.76188 0.946683C5.49352 0.956554 5.23589 1.05457 5.02883 1.22558C4.82178 1.39659 4.67684 1.63106 4.61643 1.89272C4.55603 2.15438 4.58352 2.42865 4.69466 2.67312ZM7.06256 3.53638L6.00545 2.31472C6.25104 2.43306 6.52892 2.46666 6.79564 2.41028C7.06236 2.35389 7.30287 2.21069 7.47954 2.00308L7.97818 1.35609L8.53166 2.0118C8.70424 2.21249 8.93704 2.35204 9.19537 2.40966C9.45371 2.46728 9.72375 2.43988 9.96525 2.33155L8.91312 3.53638H7.06256ZM1.24659 12.7238C1.24659 8.99146 4.27082 5.96723 8.00311 5.96723C11.7354 5.96723 14.7596 8.99146 14.7534 12.7225V12.7238C14.7529 14.0047 14.2438 15.2331 13.338 16.1389C12.4322 17.0447 11.2038 17.5538 9.92286 17.5543H6.07713C4.79614 17.5538 3.56776 17.0447 2.66197 16.1389C1.75618 15.2331 1.24709 14.0047 1.24659 12.7238Z" fill="white"/>
</svg>
