<svg width="18" height="12" viewBox="0 0 18 12" fill="none" xmlns="http://www.w3.org/2000/svg">
<path d="M3.21759 6C3.21759 5.82319 3.28528 5.65362 3.40577 5.5286C3.52626 5.40357 3.68968 5.33333 3.86008 5.33333H5.14506V4C5.14506 3.82319 5.21275 3.65362 5.33324 3.5286C5.45373 3.40357 5.61715 3.33333 5.78755 3.33333C5.95795 3.33333 6.12137 3.40357 6.24186 3.5286C6.36235 3.65362 6.43004 3.82319 6.43004 4V5.33333H7.71502C7.88542 5.33333 8.04884 5.40357 8.16933 5.5286C8.28982 5.65362 8.35751 5.82319 8.35751 6C8.35751 6.17681 8.28982 6.34638 8.16933 6.4714C8.04884 6.59643 7.88542 6.66667 7.71502 6.66667H6.43004V8C6.43004 8.17681 6.36235 8.34638 6.24186 8.47141C6.12137 8.59643 5.95795 8.66667 5.78755 8.66667C5.61715 8.66667 5.45373 8.59643 5.33324 8.47141C5.21275 8.34638 5.14506 8.17681 5.14506 8V6.66667H3.86008C3.68968 6.66667 3.52626 6.59643 3.40577 6.4714C3.28528 6.34638 3.21759 6.17681 3.21759 6ZM12.8485 8C12.8485 8.35362 12.7131 8.69276 12.4722 8.94281C12.2312 9.19286 11.9043 9.33333 11.5635 9.33333C11.2227 9.33333 10.8959 9.19286 10.6549 8.94281C10.4139 8.69276 10.2786 8.35362 10.2786 8C10.2786 7.64638 10.4139 7.30724 10.6549 7.05719C10.8959 6.80714 11.2227 6.66667 11.5635 6.66667C11.9043 6.66667 12.2312 6.80714 12.4722 7.05719C12.7131 7.30724 12.8485 7.64638 12.8485 8ZM12.8485 5.33333C13.1893 5.33333 13.5162 5.19286 13.7571 4.94281C13.9981 4.69276 14.1335 4.35362 14.1335 4C14.1335 3.64638 13.9981 3.30724 13.7571 3.05719C13.5162 2.80714 13.1893 2.66667 12.8485 2.66667C12.5077 2.66667 12.1809 2.80714 11.9399 3.05719C11.6989 3.30724 11.5635 3.64638 11.5635 4C11.5635 4.35362 11.6989 4.69276 11.9399 4.94281C12.1809 5.19286 12.5077 5.33333 12.8485 5.33333ZM0 6C0 4.4087 0.609217 2.88258 1.69363 1.75736C2.77804 0.632141 4.24882 0 5.78241 0H12.2176C13.7512 0 15.222 0.632141 16.3064 1.75736C17.3908 2.88258 18 4.4087 18 6C18 7.5913 17.3908 9.11742 16.3064 10.2426C15.222 11.3679 13.7512 12 12.2176 12H5.78241C4.24882 12 2.77804 11.3679 1.69363 10.2426C0.609217 9.11742 0 7.5913 0 6ZM5.78241 1.33333C4.58962 1.33333 3.44568 1.825 2.60225 2.70017C1.75882 3.57534 1.28498 4.76232 1.28498 6C1.28498 7.23768 1.75882 8.42466 2.60225 9.29983C3.44568 10.175 4.58962 10.6667 5.78241 10.6667H12.2176C13.4104 10.6667 14.5543 10.175 15.3978 9.29983C16.2412 8.42466 16.715 7.23768 16.715 6C16.715 4.76232 16.2412 3.57534 15.3978 2.70017C14.5543 1.825 13.4104 1.33333 12.2176 1.33333H5.78241Z" fill="white"/>
</svg>
