<svg width="17" height="17" viewBox="0 0 17 17" fill="none" xmlns="http://www.w3.org/2000/svg">
<path fill-rule="evenodd" clip-rule="evenodd" d="M13.6 1.88889L10.2 1.88889C9.74913 1.88889 9.31673 2.0879 8.99792 2.44213C8.67911 2.79637 8.5 3.27681 8.5 3.77778L8.5 4.72222C8.5 5.24382 8.11944 5.66667 7.65 5.66667C7.18056 5.66667 6.8 5.24382 6.8 4.72222V3.77778C6.8 2.77585 7.15821 1.81496 7.79584 1.10649C8.43346 0.398015 9.29826 3.94053e-07 10.2 3.3776e-07L13.6 0C14.5017 -1.12587e-07 15.3665 0.398014 16.0042 1.10648C16.6418 1.81495 17 2.77585 17 3.77778V13.2222C17 14.2242 16.6418 15.185 16.0042 15.8935C15.3665 16.602 14.5017 17 13.6 17H10.2C9.29827 17 8.43346 16.602 7.79584 15.8935C7.15821 15.185 6.8 14.2242 6.8 13.2222V12.2778C6.8 11.7562 7.18056 11.3333 7.65 11.3333C8.11944 11.3333 8.5 11.7562 8.5 12.2778V13.2222C8.5 13.7232 8.67911 14.2036 8.99792 14.5579C9.31673 14.9121 9.74913 15.1111 10.2 15.1111H13.6C14.0509 15.1111 14.4833 14.9121 14.8021 14.5579C15.1209 14.2036 15.3 13.7232 15.3 13.2222V3.77778C15.3 3.27681 15.1209 2.79637 14.8021 2.44213C14.4833 2.0879 14.0509 1.88889 13.6 1.88889ZM4.85104 4.0544C5.18299 4.42323 5.18299 5.02122 4.85104 5.39005L2.90208 7.55556L12.75 7.55556C13.2194 7.55556 13.6 7.9784 13.6 8.5C13.6 9.0216 13.2194 9.44444 12.75 9.44444H2.90208L4.85104 11.61C5.18299 11.9788 5.18299 12.5768 4.85104 12.9456C4.5191 13.3144 3.98091 13.3144 3.64896 12.9456L0.248959 9.16782C0.0895533 8.99071 0 8.75048 0 8.5C0 8.24952 0.0895533 8.0093 0.248959 7.83218L3.64896 4.0544C3.9809 3.68557 4.51909 3.68557 4.85104 4.0544Z" fill="white"/>
</svg>
