<svg width="16" height="18" viewBox="0 0 16 18" fill="none" xmlns="http://www.w3.org/2000/svg">
<path d="M8 7.2C9.51111 7.2 10.72 5.985 10.72 4.5C10.72 3.015 9.51111 1.8 8 1.8C6.48889 1.8 5.28 3.015 5.28 4.5C5.28 5.985 6.48889 7.2 8 7.2ZM8 9C5.51111 9 3.50222 6.984 3.50222 4.5C3.50222 2.016 5.51111 0 8 0C10.4889 0 12.4978 2.016 12.4978 4.5C12.4978 6.984 10.4889 9 8 9ZM1.77778 16.2H14.2222V15.003C14.2222 13.428 12.1689 11.799 8 11.799C3.83111 11.799 1.77778 13.428 1.77778 15.003V16.2ZM8 9.999C13.92 9.999 16 12.996 16 15.003V18H0V15.003C0 12.996 2.08 9.999 8 9.999Z" fill="white"/>
</svg>
