<svg width="16" height="18" viewBox="0 0 16 18" fill="none" xmlns="http://www.w3.org/2000/svg">
<path d="M7.57895 18V15.1315C3.36 14.9243 0 11.6096 0 7.56972C0 3.39442 3.58737 0 8 0C12.4126 0 16 3.39442 16 7.56972C16 11.5139 13.1032 15.4821 8.78316 17.4502L7.57895 18ZM8 1.59363C4.51368 1.59363 1.68421 4.27092 1.68421 7.56972C1.68421 10.8685 4.51368 13.5458 8 13.5458H9.26316V15.3785C12.3284 13.5458 14.3158 10.5339 14.3158 7.56972C14.3158 4.27092 11.4863 1.59363 8 1.59363ZM7.15789 10.757H8.8421V12.3506H7.15789V10.757ZM8.8421 9.56175H7.15789C7.15789 6.97211 9.68421 7.17132 9.68421 5.57769C9.68421 4.7012 8.92632 3.98406 8 3.98406C7.07368 3.98406 6.31579 4.7012 6.31579 5.57769H4.63158C4.63158 3.81673 6.13895 2.39044 8 2.39044C9.86105 2.39044 11.3684 3.81673 11.3684 5.57769C11.3684 7.56972 8.8421 7.76892 8.8421 9.56175Z" fill="white"/>
</svg>
