<svg width="18" height="18" viewBox="0 0 18 18" fill="none" xmlns="http://www.w3.org/2000/svg">
<path d="M1.58866 8.83674C1.62797 6.92918 2.40433 5.11092 3.75494 3.76326C4.43517 3.08302 5.22633 2.54721 6.10749 2.17465C7.02005 1.78953 7.98912 1.59279 8.98749 1.59279C9.98796 1.59279 10.957 1.78744 11.8675 2.17465C12.7487 2.54721 13.5398 3.08302 14.2201 3.76326C14.4294 3.97256 14.624 4.19233 14.804 4.42047L13.7575 5.23884C13.7326 5.25812 13.7136 5.28405 13.7027 5.31365C13.6919 5.34324 13.6896 5.37529 13.6962 5.40612C13.7027 5.43695 13.7179 5.4653 13.7398 5.48792C13.7618 5.51053 13.7897 5.52649 13.8203 5.53395L17.1021 6.33558C17.2068 6.3607 17.3094 6.28116 17.3094 6.17442L17.3261 2.79419C17.3261 2.65395 17.1649 2.57442 17.0561 2.66233L16.0556 3.44512C14.4147 1.34581 11.8591 0 8.98959 0C4.08145 0 0.0900523 3.93698 5.23381e-05 8.82837C-0.0005063 8.85071 0.0034119 8.87293 0.0115762 8.89373C0.0197404 8.91454 0.0319855 8.93349 0.0475899 8.94949C0.0631943 8.96548 0.0818424 8.97819 0.102435 8.98687C0.123028 8.99554 0.145149 9.00001 0.167494 9H1.42331C1.51331 9 1.58656 8.92674 1.58866 8.83674ZM17.8326 9H16.5768C16.4868 9 16.4114 9.07326 16.4094 9.16326C16.37 11.0708 15.5937 12.8891 14.2431 14.2367C13.5691 14.9135 12.7701 15.4531 11.8905 15.8253C10.978 16.2105 10.0089 16.4072 9.01052 16.4072C8.01215 16.4072 7.04098 16.2126 6.13052 15.8253C5.25091 15.4531 4.45194 14.9135 3.77796 14.2367C3.56866 14.0274 3.37401 13.8077 3.19401 13.5795L4.23842 12.7612C4.26335 12.7419 4.28234 12.7159 4.29318 12.6864C4.30403 12.6568 4.30631 12.6247 4.29975 12.5939C4.29319 12.563 4.27806 12.5347 4.2561 12.5121C4.23415 12.4895 4.20626 12.4735 4.17563 12.466L0.893773 11.6644C0.789122 11.6393 0.686564 11.7188 0.686564 11.8256L0.66982 15.21C0.66982 15.3502 0.830983 15.4298 0.93982 15.3419L1.94028 14.5591C3.5854 16.6542 6.14098 18 9.01052 18C13.9187 18 17.9101 14.063 18.0001 9.17163C18.0006 9.14929 17.9967 9.12707 17.9885 9.10626C17.9804 9.08546 17.9681 9.06651 17.9525 9.05051C17.9369 9.03452 17.9183 9.02181 17.8977 9.01313C17.8771 9.00446 17.855 8.99999 17.8326 9Z" fill="white"/>
<path d="M9.95825 13.9501L6.26341 10.1042V9.00531H8.18637C8.67169 9.00531 9.09072 8.84727 9.44344 8.53117C9.7958 8.21543 10.0086 7.82406 10.0819 7.35706H5.71399V6.25822H9.91704C9.76137 5.93773 9.53025 5.67437 9.22368 5.46816C8.91673 5.26231 8.57097 5.15938 8.18637 5.15938H5.71399V4.06055H12.307V5.15938H10.5214C10.6496 5.31505 10.7641 5.48446 10.8648 5.6676C10.9655 5.85074 11.0434 6.04761 11.0983 6.25822H12.307V7.35706H11.1944C11.1212 8.1354 10.8007 8.78775 10.233 9.31409C9.66523 9.8408 8.98303 10.1042 8.18637 10.1042H7.78804L11.4829 13.9501H9.95825Z" fill="white"/>
</svg>
