<svg width="16" height="16" viewBox="0 0 16 16" fill="none" xmlns="http://www.w3.org/2000/svg">
<path d="M15.4668 6.4003H14.9335V3.20087C14.9335 3.05944 14.8773 2.92381 14.7773 2.82381C14.6773 2.72381 14.5417 2.66763 14.4003 2.66763H1.60253C1.47626 2.66969 1.35336 2.62687 1.25571 2.5468C1.15806 2.46672 1.092 2.35459 1.06929 2.23037V2.0384C1.092 1.91418 1.15806 1.80205 1.25571 1.72198C1.35336 1.64191 1.47626 1.59909 1.60253 1.60115H14.1763C14.3177 1.60115 14.4534 1.54497 14.5534 1.44497C14.6534 1.34496 14.7096 1.20933 14.7096 1.06791C14.7096 0.926484 14.6534 0.790852 14.5534 0.69085C14.4534 0.590849 14.3177 0.534668 14.1763 0.534668H1.60253C1.17825 0.534668 0.77136 0.703209 0.471354 1.00321C0.171349 1.30322 0.0028071 1.71012 0.0028071 2.13439C-0.000935701 2.19832 -0.000935701 2.26242 0.0028071 2.32635V13.2951C0.00490021 13.5822 0.0635251 13.8661 0.175334 14.1305C0.287143 14.395 0.449947 14.6348 0.654449 14.8364C0.858952 15.0379 1.10115 15.1972 1.36721 15.3051C1.63327 15.413 1.91798 15.4675 2.20509 15.4654H14.4003C14.5417 15.4654 14.6773 15.4092 14.7773 15.3092C14.8773 15.2092 14.9335 15.0736 14.9335 14.9321V11.7327H15.4668C15.6082 11.7327 15.7438 11.6765 15.8438 11.5765C15.9438 11.4765 16 11.3409 16 11.1995V6.93354C16 6.79212 15.9438 6.65649 15.8438 6.55649C15.7438 6.45649 15.6082 6.4003 15.4668 6.4003ZM13.867 14.3989H2.20509C1.9085 14.4018 1.62278 14.2874 1.41008 14.0807C1.19737 13.874 1.0749 13.5916 1.06929 13.2951V3.67012C1.24238 3.72028 1.42248 3.74189 1.60253 3.73411H13.867V6.4003H10.1344C9.42724 6.4003 8.74909 6.68121 8.24908 7.18122C7.74907 7.68123 7.46816 8.35938 7.46816 9.0665C7.46816 9.77362 7.74907 10.4518 8.24908 10.9518C8.74909 11.4518 9.42724 11.7327 10.1344 11.7327H13.867V14.3989ZM14.9335 10.6662H10.1344C9.71009 10.6662 9.3032 10.4977 9.00319 10.1977C8.70319 9.89767 8.53464 9.49078 8.53464 9.0665C8.53464 8.64223 8.70319 8.23534 9.00319 7.93533C9.3032 7.63533 9.71009 7.46678 10.1344 7.46678H14.9335V10.6662Z" fill="white"/>
<path d="M10.6729 9.86632C11.1147 9.86632 11.4728 9.50821 11.4728 9.06646C11.4728 8.62471 11.1147 8.2666 10.6729 8.2666C10.2312 8.2666 9.87305 8.62471 9.87305 9.06646C9.87305 9.50821 10.2312 9.86632 10.6729 9.86632Z" fill="white"/>
</svg>
